<svg width="155" height="44" viewBox="0 0 155 44" fill="none" xmlns="http://www.w3.org/2000/svg">
<path d="M30.6725 11.5414C31.3229 13.066 31.9733 14.5907 32.6237 16.1153C33.1751 15.8726 33.7265 15.6299 34.2779 15.3873C33.6274 13.8627 32.977 12.3381 32.3265 10.8136C31.7752 11.0562 31.2239 11.2988 30.6725 11.5414Z" fill="#6A0FBB"/>
<path d="M91.9456 14.6324V32.1008H101.251V35.0173H88.6483V14.6324H91.9456Z" fill="#4A0B82"/>
<path d="M70.819 34.9803H84.4223L85.8338 32.1194H70.819V34.9803ZM74.1168 17.5119H84.4223L85.8338 14.6513L72.7074 14.6575L70.8227 17.5416L70.819 25.7548H84.4223L85.8339 22.9495H74.1168V17.5119Z" fill="#4A0B82"/>
<path d="M3.11237 22.1865V35.0447H0V14.299L12.1737 27.5725L24.3472 14.299L24.347 18.8344L12.1737 32.2413L3.11237 22.1865ZM21.0727 34.9889V28.8895L24.3702 25.0081V34.9889H21.0727Z" fill="#4A0B82"/>
<path d="M105.214 24.0958L99.4864 14.4103L103.154 14.3828L106.878 21.2351L105.214 24.0958ZM118.657 14.4381L108.034 34.7726L104.296 34.8227L113.387 17.2985L114.892 14.4103H118.688L118.657 14.4381Z" fill="#4A0B82"/>
<path d="M136.565 17.2711L137.977 14.4102H154.886L153.474 17.2711H136.565ZM143.774 21.3862H147.071V34.6752H143.774V21.3862Z" fill="#4A0B82"/>
<path d="M124.935 25.7659C121.84 25.7659 119.801 22.9348 119.801 20.0249C119.801 17.1159 121.816 14.193 124.935 14.193H135.348L133.937 16.9956H124.935C123.327 16.9956 122.288 18.5032 122.288 20.0024C122.288 21.494 123.348 22.9633 124.935 22.9633H131.001C134.096 22.9633 136.135 25.7947 136.135 28.7046C136.135 31.6131 134.12 34.536 131.001 34.536H120.235L121.646 31.7332H131.001C132.609 31.7332 133.647 30.2256 133.647 28.7272C133.647 27.2353 132.588 25.7659 131.001 25.7659H124.935Z" fill="#4A0B82"/>
<path d="M57.9422 14.193C60.8284 14.193 63.0645 15.2089 64.8489 16.9195C65.7862 17.8176 66.4338 18.9809 66.9473 20.2563C67.461 21.5315 67.7175 22.898 67.7175 24.3556C67.7175 25.8132 67.461 27.1847 66.9473 28.4697C66.4338 29.7546 65.8017 30.9395 64.8489 31.8213C62.558 33.9412 60.7441 34.5475 57.9422 34.5475H54.6792H51.3814V22.4912H54.6792V31.6626H57.5894C58.5603 31.6626 59.4729 31.4712 60.3284 31.0873C61.1842 30.7037 61.9297 30.1813 62.5645 29.5196C63.1996 28.858 63.7028 28.0813 64.0731 27.1895C64.4435 26.2977 64.6289 25.3533 64.6289 24.3556C64.6289 23.3585 64.4435 22.4188 64.0731 21.5368C63.7028 20.6545 63.1996 19.8823 62.5645 19.2209C61.9297 18.559 61.1842 18.0363 60.3284 17.6529C59.4729 17.2693 58.5603 17.0772 57.5894 17.0772H54.6792H51.3814L53.2661 14.193H54.6792H57.9422Z" fill="#4A0B82"/>
<path d="M23.4203 5.96683C23.3096 9.48608 26.8206 12.5016 30.2836 11.8553C33.769 11.4264 36.2181 7.52016 35.0666 4.19718C34.1249 0.819711 29.9122 -1.02632 26.7972 0.59769C24.7675 1.55541 23.395 3.71848 23.4203 5.96683ZM25.2772 5.96683C25.1585 3.14252 28.427 0.995181 30.972 2.1888C33.5934 3.1741 34.3482 6.96709 32.2755 8.86478C30.3779 10.9375 26.5851 10.1826 25.6 7.56126C25.3864 7.05854 25.2768 6.51266 25.2772 5.96683Z" fill="#6A0FBB"/>
<path d="M25.173 39.9287C25.0524 42.7282 28.292 44.8456 30.8087 43.6672C33.4011 42.692 34.1483 38.9381 32.0988 37.0606C30.2207 35.0117 26.4677 35.7583 25.4924 38.3506C25.2809 38.8482 25.1725 39.3885 25.173 39.9287ZM26.5845 39.9287C26.4743 37.7812 29.3263 36.433 30.9132 37.8874C32.6332 39.1616 31.8764 42.1962 29.7634 42.5215C28.1772 42.8907 26.5431 41.5561 26.5845 39.9287Z" fill="#4A0B82"/>
<path d="M33.7469 15.3548C29.4672 16.9328 26.4317 21.5359 27.139 26.1195C27.784 31.328 32.9069 35.1777 38.0328 35.0447C43.0799 35.1703 48.1435 31.4818 48.9198 26.3726C49.7451 21.8126 46.8362 17.1187 42.5834 15.4577C39.8059 14.2785 36.5508 14.2392 33.7469 15.3548ZM35.0854 31.603C31.5022 30.2535 29.4135 25.8803 30.8843 22.2889C32.3189 18.2141 37.5029 16.205 41.339 18.1427C45.1147 19.7514 46.9067 24.7855 44.7426 28.3375C42.9191 31.647 38.543 33.0936 35.0854 31.603Z" fill="url(#paint0_linear_401_2313)"/>
<path d="M30.5154 37.0065C30.8774 37.1666 31.351 38.0421 31.5774 37.3328C32.2656 36.2108 32.9538 35.0889 33.6421 33.9669C33.28 33.807 32.8062 32.9318 32.5799 33.641C31.8917 34.7629 31.2035 35.8847 30.5154 37.0065Z" fill="#4A0B82"/>
<defs>
<linearGradient id="paint0_linear_401_2313" x1="38.0313" y1="33.7793" x2="38.0313" y2="15.9503" gradientUnits="userSpaceOnUse">
<stop stop-color="#4A0B82"/>
<stop offset="1" stop-color="#6A0FBB"/>
</linearGradient>
</defs>
</svg>
